<svg width="20" height="25" viewBox="0 0 20 25" fill="none" xmlns="http://www.w3.org/2000/svg">
<path d="M15 5.25H19.75V24.75H0.25V5.25H5H5.25V5C5.25 3.69183 5.71287 2.57818 6.64553 1.64553C7.57818 0.71287 8.69183 0.25 10 0.25C11.3082 0.25 12.4218 0.71287 13.3545 1.64553C14.2871 2.57818 14.75 3.69183 14.75 5V5.25H15ZM2.25 22.5V22.75H2.5H17.5H17.75V22.5V7.5V7.25H17.5H15H14.75V7.5V11H12.75V7.5V7.25H12.5H7.5H7.25V7.5V11H5.25V7.5V7.25H5H2.5H2.25V7.5V22.5ZM7.25 4.9997L7.2497 5.25H7.5H12.5H12.75V5C12.75 4.24573 12.4787 3.59395 11.943 3.05822C11.4073 2.52251 10.7552 2.25091 10.0003 2.25H10C9.24559 2.25 8.59376 2.52177 8.05807 3.05837C7.52263 3.59473 7.25091 4.24629 7.25 4.9997Z" fill="#BE8EBF" fill-opacity="0.8" stroke="#D0CED2" stroke-width="0.5"/>
</svg>
