<svg width="76" height="76" viewBox="0 0 76 76" fill="none" xmlns="http://www.w3.org/2000/svg">
<path d="M24 64.1333C18.1865 69.6322 12.87 73 3 73C6.5 69.1111 10.945 63.8611 12.8035 55.7061C6.7345 50.11 3 42.4994 3 34.1111C3 16.93 18.6695 3 38 3C55.85 3 70.578 14.8767 72.7305 30.2222" stroke="#BE8EBF" stroke-width="5" stroke-linecap="round" stroke-linejoin="round"/>
<path d="M52 68.6794C40.401 68.6794 31 60.9405 31 51.3933C31 41.85 40.401 34.1111 52 34.1111C63.599 34.1111 73 41.85 73 51.3933C73 56.0561 70.76 60.2833 67.12 63.3905C68.2295 67.9211 70.9 70.8377 73 73C66.7 73 63.494 70.8844 59.728 67.47C57.334 68.2477 54.73 68.6794 52 68.6794Z" fill="#BE8EBF" stroke="#BE8EBF" stroke-width="5" stroke-linecap="round" stroke-linejoin="round"/>
</svg>
