<svg width="22" height="27" viewBox="0 0 22 27" fill="none" xmlns="http://www.w3.org/2000/svg">
<path d="M17.6512 1.91823L17.6512 1.91821C16.6315 1.09304 15.4642 0.665448 14.2685 0.763911C13.1412 0.856741 12.02 1.41454 11 2.48848C9.97992 1.41455 8.85879 0.857083 7.7315 0.764429C6.53584 0.666154 5.36851 1.09372 4.34886 1.91814L4.34867 1.91829C2.17765 3.67711 0.686243 7.20247 0.7521 11.2721C0.834733 16.3857 3.70326 20.8717 8.52088 24.8456C8.60778 24.9173 8.69837 24.9943 8.7919 25.0738C9.05755 25.2996 9.34687 25.5455 9.6426 25.7478C10.0449 26.0231 10.5023 26.25 11 26.25C11.5046 26.25 11.9576 26.0276 12.3576 25.753C12.6441 25.5563 12.9253 25.3163 13.1877 25.0923C13.2875 25.0071 13.3845 24.9242 13.4781 24.847C18.2978 20.8717 21.1653 16.3871 21.2479 11.2721C21.3138 7.20254 19.8224 3.6757 17.6512 1.91823ZM12.0464 5.69127L12.0467 5.69081C12.7761 4.66566 13.5366 4.17837 14.2491 4.05874C14.9595 3.93948 15.6732 4.17711 16.3297 4.70829C17.6977 5.81621 18.7971 8.21442 18.748 11.2029L18.748 11.203C18.6936 14.5925 16.7678 18.255 12.1389 22.0738L12.1386 22.074C12.0479 22.1491 11.9563 22.2287 11.8665 22.3068C11.8524 22.319 11.8384 22.3312 11.8244 22.3433C11.72 22.4339 11.6173 22.5223 11.5137 22.6052C11.3367 22.747 11.167 22.8647 11 22.9434C10.833 22.8647 10.6633 22.747 10.4863 22.6052C10.3827 22.5223 10.28 22.4339 10.1756 22.3433C10.1616 22.3312 10.1476 22.319 10.1335 22.3068C10.0437 22.2287 9.95208 22.1491 9.86136 22.074L9.8611 22.0738C5.23218 18.255 3.3064 14.5911 3.25202 11.2043L3.25202 11.2043C3.20388 8.2129 4.30244 5.81606 5.67038 4.70821C6.32691 4.17709 7.04058 3.93948 7.75087 4.05874C8.46335 4.17837 9.22391 4.66566 9.9533 5.69081L9.95363 5.69127C10.082 5.87076 10.2388 6.01922 10.4183 6.12298C10.5984 6.22711 10.7964 6.28327 11 6.28327C11.2036 6.28327 11.4016 6.22711 11.5817 6.12298C11.7612 6.01922 11.918 5.87076 12.0464 5.69127Z" fill="#BE8EBF" fill-opacity="0.8" stroke="#D0CED2" stroke-width="0.5"/>
</svg>
